<svg width="240" height="39" viewBox="0 0 240 39" fill="none" xmlns="http://www.w3.org/2000/svg">
<path d="M27.9577 0.639999C20.2327 0.635999 12.1727 2.376 4.03768 4.633C3.00468 4.841 1.99668 5.517 1.46368 6.353C0.973684 7.141 0.795684 7.932 0.642684 8.761C-0.147316 13.189 -0.0513159 17.537 0.112684 22.355C0.148684 23.458 0.312684 24.765 0.827684 25.56C1.36568 26.363 2.28768 26.873 3.38868 27.04C4.79529 27.2463 6.2063 27.4214 7.62068 27.565L7.30868 36.263C7.26068 36.955 7.59868 37.53 8.01868 37.861C8.39468 38.147 8.81368 38.274 9.24368 38.306C10.1037 38.371 11.1127 38.003 11.6137 37.049C13.8087 32.825 15.1857 30.96 17.9307 28.154C25.0887 28.33 31.3377 27.932 38.4127 27.409C40.9137 27.344 42.6307 25.299 43.0847 23.666C44.4417 19.434 44.6527 14.21 44.7967 8.929C44.8577 6.836 44.1317 4.781 42.8467 3.695C41.6247 2.704 40.1447 2.345 38.7887 1.977C35.0217 1.124 31.2537 0.665999 27.9577 0.639999ZM38.2477 3.95C39.6057 4.319 40.8027 4.674 41.5577 5.287C42.8177 6.626 42.7757 7.517 42.7577 8.962C42.6157 14.084 42.3697 19.055 41.2137 22.822C40.7157 24.227 39.8477 25.227 38.2077 25.378C30.9997 25.911 24.7457 26.323 17.5007 26.117C17.3596 26.1125 17.2191 26.137 17.0879 26.1889C16.9566 26.2408 16.8375 26.3192 16.7377 26.419C13.6937 29.493 12.1367 31.629 9.81668 36.095C9.76268 36.197 9.64568 36.259 9.50168 36.27C9.40468 36.265 9.36568 36.19 9.35968 36.122L9.67368 26.69C9.69268 26.181 9.27268 25.695 8.76668 25.64C7.0748 25.4784 5.38753 25.2717 3.70668 25.02C2.98068 24.909 2.71268 24.71 2.51368 24.414C2.16768 23.589 2.17568 23.079 2.14868 22.286C1.98668 17.511 1.90668 13.338 2.63968 9.186C2.70768 8.572 2.93768 7.944 3.18168 7.419C3.58568 6.787 4.20468 6.694 4.82568 6.522C12.7817 4.325 20.5657 2.682 27.8937 2.677C31.4857 2.807 35.2577 3.167 38.2477 3.95V3.95ZM10.7687 12.04C9.67268 13.353 9.78168 15.136 10.6287 16.33C11.0707 16.955 11.7607 17.458 12.6007 17.572C13.6917 17.662 14.3837 17.22 15.1307 16.712C16.4837 15.536 16.6207 13.484 15.5917 12.002C15.0677 11.247 14.2297 10.794 13.3737 10.762C12.2017 10.774 11.4057 11.297 10.7687 12.039V12.04ZM22.6247 10.968C21.5327 11.003 20.6497 11.759 20.1107 12.575C19.4937 13.508 19.1337 14.676 19.6327 15.821C20.5927 18.024 23.9097 17.997 25.2327 15.758C25.8427 14.726 25.6867 13.553 25.2327 12.702C24.7807 11.852 24.0967 11.159 23.1017 11C22.9441 10.9741 22.7843 10.9634 22.6247 10.968V10.968ZM32.2497 11.175C31.9097 11.167 31.5597 11.199 31.2317 11.286C29.9197 11.636 28.8027 12.99 28.9717 14.723C29.0577 15.595 29.4587 16.445 30.1817 17.031C30.9047 17.616 31.9547 17.878 33.0617 17.651C34.3337 17.391 35.1217 16.366 35.3847 15.376C35.6477 14.386 35.5817 13.377 34.9707 12.559C34.6528 12.1363 34.2424 11.7918 33.771 11.5519C33.2996 11.312 32.7796 11.1831 32.2507 11.175H32.2497ZM13.2847 12.798C13.5297 12.8 13.7227 12.878 13.9217 13.164C14.3667 13.806 14.2427 14.779 13.7937 15.169C13.3467 15.559 13.0677 15.593 12.8717 15.567C12.6757 15.54 12.4767 15.405 12.2987 15.153C11.9587 14.673 11.8587 13.897 12.3057 13.343C12.5437 13.027 12.9807 12.83 13.2857 12.798H13.2847ZM22.7677 13.021C22.8057 13.027 23.2317 13.274 23.4357 13.657C23.6397 14.04 23.6777 14.396 23.4837 14.723C22.9067 15.699 21.6797 15.435 21.4937 15.01C21.4237 14.848 21.4767 14.197 21.8137 13.69C22.1487 13.181 22.5707 12.99 22.7677 13.02V13.021ZM33.3317 13.769C33.3937 13.852 33.5447 14.409 33.4277 14.851C33.3097 15.293 33.1177 15.566 32.6477 15.662C32.0457 15.786 31.7077 15.662 31.4547 15.455C31.2007 15.25 31.0297 14.903 30.9927 14.532C30.9027 13.612 31.2327 13.399 31.7567 13.259C32.3667 13.109 33.0567 13.371 33.3317 13.769V13.769Z" fill="white"/>
<path d="M57.6006 4.757C57.6166 4.497 57.7116 4.263 57.8876 4.056C57.9732 3.95452 58.0809 3.87387 58.2023 3.82016C58.3238 3.76645 58.4559 3.74109 58.5886 3.746H65.4146C65.6446 3.746 65.8816 3.842 66.1266 4.033C66.2414 4.11542 66.3347 4.2242 66.3988 4.35018C66.4628 4.47616 66.4957 4.61568 66.4946 4.757V15.65H77.9156V4.757C77.9156 4.481 78.0116 4.244 78.2026 4.045C78.3946 3.845 78.6426 3.745 78.9496 3.745H85.6836C85.9896 3.745 86.2576 3.822 86.4876 3.975C86.7176 4.129 86.8326 4.374 86.8326 4.711V36.861C86.8326 37.198 86.7326 37.451 86.5326 37.619C86.3346 37.788 86.0736 37.872 85.7526 37.872H78.9496C78.6436 37.872 78.3946 37.788 78.2026 37.619C78.0116 37.451 77.9156 37.199 77.9156 36.861V23.808H66.4946V36.861C66.4946 37.183 66.3906 37.431 66.1846 37.608C65.9776 37.784 65.6976 37.872 65.3446 37.872H58.5886C57.9456 37.872 57.6166 37.573 57.6006 36.976V4.757ZM120.476 37.482C120.277 37.65 120.066 37.757 119.844 37.803C119.636 37.8477 119.425 37.8712 119.213 37.873H115.743C115.467 37.873 115.229 37.823 115.03 37.723C114.83 37.623 114.662 37.489 114.524 37.321C114.382 37.1465 114.267 36.9529 114.18 36.746C114.087 36.5298 114.01 36.3072 113.95 36.08L113.238 33.138C113.008 33.613 112.675 34.153 112.238 34.758C111.765 35.4 111.204 35.9723 110.572 36.458C109.898 36.988 109.093 37.432 108.159 37.792C107.224 38.152 106.152 38.332 104.941 38.332C103.195 38.332 101.609 37.995 100.184 37.321C98.7885 36.6692 97.5472 35.7292 96.5416 34.563C95.5386 33.399 94.7606 32.039 94.2096 30.483C93.6576 28.929 93.3816 27.27 93.3816 25.509V10.456C93.3816 9.874 93.5086 9.434 93.7616 9.135C94.0136 8.836 94.4156 8.687 94.9676 8.687H100.276C100.936 8.687 101.387 8.797 101.632 9.02C101.877 9.242 102 9.675 102 10.318V25.278C102 25.938 102.15 26.562 102.448 27.152C102.747 27.742 103.141 28.262 103.632 28.714C104.122 29.166 104.677 29.523 105.298 29.783C105.918 30.043 106.55 30.173 107.194 30.173C107.745 30.173 108.316 30.043 108.906 29.783C109.499 29.5197 110.05 29.1669 110.537 28.737C111.035 28.301 111.445 27.787 111.767 27.197C112.089 26.607 112.249 25.983 112.249 25.325V10.387C112.249 10.127 112.299 9.867 112.399 9.606C112.499 9.346 112.648 9.146 112.847 9.008C113.046 8.886 113.234 8.802 113.41 8.756C113.586 8.71 113.79 8.686 114.019 8.686H119.213C119.871 8.686 120.346 8.848 120.637 9.169C120.928 9.491 121.074 9.92 121.074 10.456V36.172C121.074 36.462 121.009 36.731 120.879 36.976C120.749 37.221 120.569 37.413 120.339 37.55L120.476 37.482V37.482ZM147.157 34.31C146.743 34.724 146.287 35.168 145.79 35.643C145.292 36.118 144.744 36.563 144.147 36.976C143.546 37.3916 142.898 37.735 142.217 37.999C141.505 38.2712 140.749 38.4075 139.987 38.401C137.904 38.401 135.985 38.011 134.23 37.229C132.519 36.4783 130.979 35.3876 129.703 34.023C128.439 32.667 127.451 31.07 126.739 29.231C126.026 27.393 125.67 25.417 125.67 23.302C125.67 21.172 126.026 19.192 126.739 17.362C127.451 15.532 128.439 13.938 129.703 12.582C130.977 11.2187 132.518 10.1316 134.23 9.388C135.985 8.614 137.904 8.227 139.987 8.227C140.83 8.227 141.6 8.35 142.297 8.595C142.969 8.82801 143.61 9.14448 144.204 9.537C144.779 9.92 145.307 10.353 145.79 10.835C146.272 11.318 146.728 11.789 147.157 12.249V1.746C147.157 1.256 147.307 0.843 147.605 0.506C147.904 0.168 148.352 0 148.95 0H154.12C154.32 0 154.53 0.042 154.752 0.126C154.974 0.211 155.177 0.329 155.362 0.483C155.545 0.636 155.694 0.82 155.809 1.034C155.924 1.249 155.982 1.486 155.982 1.746V36.103C155.982 37.283 155.362 37.873 154.12 37.873H149.616C149.31 37.873 149.072 37.833 148.904 37.757C148.737 37.6821 148.591 37.5678 148.478 37.424C148.35 37.2553 148.245 37.07 148.168 36.873C148.059 36.6136 147.945 36.3568 147.824 36.103L147.157 34.31V34.31ZM133.943 23.302C133.935 24.2684 134.094 25.2289 134.414 26.141C134.728 27.021 135.176 27.784 135.759 28.427C136.347 29.0751 137.063 29.5952 137.861 29.955C138.681 30.331 139.589 30.518 140.585 30.518C141.565 30.518 142.488 30.342 143.354 29.99C144.195 29.6531 144.963 29.1574 145.617 28.53C146.266 27.9017 146.792 27.1576 147.169 26.336C147.559 25.493 147.778 24.589 147.824 23.624V23.302C147.827 22.3403 147.639 21.3876 147.272 20.499C146.915 19.6279 146.397 18.8325 145.744 18.155C145.089 17.4783 144.308 16.9359 143.446 16.558C142.544 16.163 141.569 15.9633 140.585 15.972C139.589 15.972 138.681 16.167 137.861 16.558C137.041 16.948 136.341 17.481 135.759 18.155C135.167 18.8449 134.711 19.6401 134.414 20.499C134.098 21.3996 133.939 22.3477 133.944 23.302H133.943ZM182.663 34.31C182.249 34.724 181.793 35.168 181.295 35.643C180.797 36.118 180.249 36.563 179.652 36.976C179.051 37.3916 178.403 37.735 177.722 37.999C177.01 38.2712 176.254 38.4075 175.492 38.401C173.409 38.401 171.49 38.011 169.736 37.229C168.024 36.4784 166.484 35.3877 165.208 34.023C163.945 32.667 162.956 31.07 162.244 29.231C161.532 27.393 161.175 25.417 161.175 23.302C161.175 21.172 161.532 19.192 162.244 17.362C162.956 15.532 163.944 13.938 165.208 12.582C166.482 11.2186 168.024 10.1315 169.736 9.388C171.49 8.614 173.409 8.227 175.492 8.227C176.335 8.227 177.105 8.35 177.802 8.595C178.474 8.82801 179.115 9.14448 179.709 9.537C180.284 9.92 180.812 10.353 181.295 10.835C181.778 11.318 182.233 11.789 182.662 12.249V1.746C182.662 1.256 182.812 0.843 183.11 0.506C183.41 0.168 183.857 0 184.455 0H189.625C189.825 0 190.035 0.042 190.257 0.126C190.48 0.211 190.683 0.329 190.867 0.483C191.05 0.636 191.2 0.82 191.315 1.034C191.429 1.249 191.487 1.486 191.487 1.746V36.103C191.487 37.283 190.867 37.873 189.625 37.873H185.121C184.815 37.873 184.577 37.833 184.409 37.757C184.242 37.682 184.096 37.5677 183.984 37.424C183.856 37.2553 183.751 37.07 183.674 36.873C183.565 36.6135 183.45 36.3568 183.329 36.103L182.662 34.31H182.663ZM169.448 23.302C169.44 24.2684 169.599 25.2289 169.919 26.141C170.234 27.021 170.682 27.784 171.264 28.427C171.852 29.0752 172.568 29.5953 173.367 29.955C174.187 30.331 175.094 30.518 176.09 30.518C177.07 30.518 177.993 30.342 178.859 29.99C179.7 29.6532 180.469 29.1575 181.123 28.53C181.771 27.9015 182.297 27.1574 182.673 26.336C183.064 25.493 183.283 24.589 183.329 23.624V23.302C183.332 22.3403 183.144 21.3876 182.777 20.499C182.42 19.6279 181.902 18.8325 181.249 18.155C180.594 17.4783 179.813 16.9359 178.951 16.558C178.049 16.163 177.074 15.9633 176.09 15.972C175.094 15.972 174.186 16.167 173.367 16.558C172.547 16.948 171.846 17.481 171.264 18.155C170.672 18.8449 170.216 19.6401 169.919 20.499C169.603 21.3996 169.444 22.3477 169.449 23.302H169.448ZM197.601 1.769C197.601 1.279 197.723 0.866 197.968 0.529C198.214 0.191 198.635 0.023 199.232 0.023H204.862C205.016 0.023 205.177 0.065 205.345 0.149C205.521 0.239587 205.681 0.360413 205.816 0.506C205.962 0.659 206.084 0.843 206.184 1.057C206.284 1.272 206.334 1.509 206.334 1.769V36.103C206.334 36.685 206.169 37.125 205.839 37.424C205.51 37.723 205.085 37.872 204.564 37.872H199.232C198.635 37.872 198.214 37.722 197.968 37.424C197.723 37.125 197.601 36.684 197.601 36.103V1.769ZM236.301 34.379C234.968 35.6099 233.427 36.5942 231.751 37.286C230.052 37.9858 228.232 38.3413 226.396 38.332C224.296 38.332 222.313 37.949 220.444 37.182C218.617 36.4437 216.948 35.3637 215.526 34C214.109 32.6338 212.97 31.0066 212.171 29.208C211.343 27.37 210.93 25.371 210.93 23.21C210.93 21.862 211.094 20.556 211.424 19.292C211.742 18.0553 212.213 16.8628 212.826 15.742C213.431 14.6388 214.172 13.6158 215.032 12.697C215.889 11.7766 216.867 10.9764 217.939 10.318C219.029 9.65115 220.204 9.13322 221.432 8.778C222.723 8.40554 224.062 8.21999 225.407 8.227C226.679 8.227 227.912 8.396 229.107 8.733C230.302 9.07 231.425 9.545 232.474 10.157C233.524 10.77 234.484 11.506 235.358 12.364C236.219 13.2077 236.976 14.153 237.61 15.179C238.238 16.1976 238.729 17.2948 239.07 18.442C239.414 19.599 239.587 20.79 239.587 22.015C239.587 22.812 239.575 23.463 239.552 23.969C239.529 24.474 239.41 24.877 239.196 25.175C238.981 25.475 238.626 25.681 238.127 25.795C237.629 25.911 236.897 25.968 235.933 25.968H219.387C219.54 26.948 219.85 27.768 220.317 28.428C220.749 29.0527 221.299 29.587 221.937 30.001C222.55 30.392 223.201 30.671 223.891 30.841C224.529 31.0028 225.185 31.0874 225.844 31.093C226.396 31.093 226.962 31.035 227.544 30.921C228.117 30.8084 228.682 30.6547 229.234 30.461C229.749 30.2817 230.249 30.0586 230.727 29.794C231.179 29.542 231.543 29.277 231.819 29.002C232.064 28.802 232.275 28.653 232.451 28.553C232.627 28.453 232.815 28.404 233.014 28.404C233.214 28.404 233.416 28.474 233.624 28.611C233.875 28.7871 234.11 28.987 234.324 29.208L236.76 31.966C236.928 32.166 237.036 32.346 237.082 32.506C237.128 32.667 237.151 32.832 237.151 33C237.151 33.307 237.066 33.571 236.898 33.793C236.728 34.0163 236.526 34.2137 236.3 34.379H236.301ZM225.247 15.236C224.649 15.236 224.071 15.355 223.512 15.592C222.944 15.8342 222.414 16.1554 221.937 16.546C221.447 16.944 221.007 17.396 220.616 17.902C220.242 18.3791 219.923 18.8955 219.662 19.442H231.405C231.097 18.8658 230.747 18.3127 230.36 17.787C229.991 17.2882 229.558 16.84 229.073 16.454C228.576 16.0634 228.016 15.7604 227.418 15.558C226.798 15.343 226.074 15.236 225.247 15.236Z" fill="white"/>
</svg>
